<?xml version="1.0" encoding="UTF-8" standalone="no"?>
<!-- Created with Inkscape (http://www.inkscape.org/) -->

<svg
   xmlns:dc="http://purl.org/dc/elements/1.1/"
   xmlns:cc="http://creativecommons.org/ns#"
   xmlns:rdf="http://www.w3.org/1999/02/22-rdf-syntax-ns#"
   xmlns:svg="http://www.w3.org/2000/svg"
   xmlns="http://www.w3.org/2000/svg"
   xmlns:sodipodi="http://sodipodi.sourceforge.net/DTD/sodipodi-0.dtd"
   xmlns:inkscape="http://www.inkscape.org/namespaces/inkscape"
   width="20"
   height="20"
   viewBox="0 0 5.2916665 5.2916665"
   version="1.1"
   id="svg881"
   sodipodi:docname="icon.svg"
   inkscape:version="0.92.4 (5da689c313, 2019-01-14)">
  <defs
     id="defs875" />
  <sodipodi:namedview
     id="base"
     pagecolor="#ffffff"
     bordercolor="#666666"
     borderopacity="1.0"
     inkscape:pageopacity="0.0"
     inkscape:pageshadow="2"
     inkscape:zoom="15.839192"
     inkscape:cx="16.285396"
     inkscape:cy="13.553729"
     inkscape:document-units="mm"
     inkscape:current-layer="layer1"
     showgrid="false"
     units="px"
     showguides="true"
     inkscape:guide-bbox="true"
     inkscape:window-width="1920"
     inkscape:window-height="1001"
     inkscape:window-x="-9"
     inkscape:window-y="-9"
     inkscape:window-maximized="1">
    <sodipodi:guide
       position="0.85192159,8.6528507"
       orientation="-0.70710678,0.70710678"
       id="guide1432"
       inkscape:locked="false"
       inkscape:label=""
       inkscape:color="rgb(0,0,255)" />
  </sodipodi:namedview>
  <metadata
     id="metadata878">
    <rdf:RDF>
      <cc:Work
         rdf:about="">
        <dc:format>image/svg+xml</dc:format>
        <dc:type
           rdf:resource="http://purl.org/dc/dcmitype/StillImage" />
        <dc:title></dc:title>
      </cc:Work>
    </rdf:RDF>
  </metadata>
  <g
     inkscape:label="Layer 1"
     inkscape:groupmode="layer"
     id="layer1"
     transform="translate(0,-291.70833)">
    <path
       inkscape:connector-curvature="0"
       d="m 4.2755178,293.55128 c -0.01211,-0.0192 -0.0325,-0.0222 -0.162164,0.005 -0.01547,0.003 -0.07433,0.027 -0.07433,0.027 0,0 -0.02088,-0.0299 -0.02601,-0.0379 -0.01018,-0.0161 -0.03656,-0.0276 -0.05989,-0.0274 -0.07233,4.1e-4 -0.39003,0.13003 -0.521594,0.21318 -0.08167,0.0516 -0.135363,0.075 -0.152961,0.069 -0.01553,-0.006 -0.07665,-0.0459 -0.136341,-0.0897 -0.105352,-0.0774 -0.124035,-0.10164 -0.633329,-0.82048 -0.403335,-0.56929 -0.535219,-0.74539 -0.57031,-0.762 -0.09733,-0.0461 -0.212618,0.0211 -0.383031,0.22371 l -0.08808,0.10429 c 0,0 0.84449,2.00294 0.84449,2.00294 l -1.018665,0.85599 -0.03672,-0.0331 c -0.02009,-0.0184 -0.130388,-0.15672 -0.245078,-0.30772 -0.11474505,-0.15097 -0.22162805,-0.2789 -0.23777105,-0.28415 -0.06484,-0.0211 -0.333465,0.19665 -0.302418,0.24584 0.04866,0.0771 0.190126,0.38608 0.187261,0.4088 -0.0017,0.0169 0.119493,0.28182 0.179048,0.37618 0.05955,0.0943 0.24703905,0.31831 0.26256905,0.32346 0.02145,0.007 0.23985,0.26785 0.288479,0.34489 0.03085,0.0489 0.343245,-0.0995 0.351992,-0.1673 0.002,-0.0171 -0.06725,-0.16835 -0.154233,-0.33688 -0.08698,-0.16844 -0.164514,-0.3276 -0.172367,-0.35362 l -0.0141,-0.0473 1.210955,-0.55136 c 0,0 1.444886,1.62397 1.444886,1.62397 l 0.13205,-0.0346 c 0.256015,-0.067 0.366223,-0.14223 0.366745,-0.24952 5e-5,-0.0389 -0.102155,-0.23364 -0.442577,-0.84264 -0.42987,-0.76903 -0.443756,-0.79632 -0.468248,-0.92469 -0.0139,-0.0728 -0.02396,-0.14574 -0.02236,-0.16168 0.0018,-0.0192 0.04647,-0.0567 0.128134,-0.10833 0.131612,-0.0831 0.385334,-0.31405 0.416745,-0.37929 0.01058,-0.0203 0.01073,-0.0505 9.53e-4,-0.066 -0.0051,-0.008 -0.0228,-0.0393 -0.0228,-0.0393 0,0 0.04668,-0.0433 0.05703,-0.0544 0.08075,-0.10505 0.08654,-0.12524 0.07432,-0.14459 z"
       id="path13"
       style="fill:#ff3e33;fill-opacity:1;stroke:#000000;stroke-width:0.13516735;stroke-miterlimit:4;stroke-dasharray:none;stroke-opacity:1" />
  </g>
</svg>
