<?xml version="1.0" encoding="UTF-8" standalone="no"?>
<svg
   xmlns:dc="http://purl.org/dc/elements/1.1/"
   xmlns:cc="http://creativecommons.org/ns#"
   xmlns:rdf="http://www.w3.org/1999/02/22-rdf-syntax-ns#"
   xmlns:svg="http://www.w3.org/2000/svg"
   xmlns="http://www.w3.org/2000/svg"
   xmlns:sodipodi="http://sodipodi.sourceforge.net/DTD/sodipodi-0.dtd"
   xmlns:inkscape="http://www.inkscape.org/namespaces/inkscape"
   version="1.0"
   width="21"
   height="17"
   id="svg2"
   sodipodi:version="0.32"
   inkscape:version="0.92.4 (5da689c313, 2019-01-14)"
   sodipodi:docname="aircraft-icon__red.svg"
   inkscape:output_extension="org.inkscape.output.svg.inkscape">
  <metadata
     id="metadata16">
    <rdf:RDF>
      <cc:Work
         rdf:about="">
        <dc:format>image/svg+xml</dc:format>
        <dc:type
           rdf:resource="http://purl.org/dc/dcmitype/StillImage" />
        <dc:title></dc:title>
      </cc:Work>
    </rdf:RDF>
  </metadata>
  <sodipodi:namedview
     inkscape:window-height="1001"
     inkscape:window-width="1920"
     inkscape:pageshadow="2"
     inkscape:pageopacity="0.0"
     guidetolerance="10.0"
     gridtolerance="10.0"
     objecttolerance="10.0"
     borderopacity="1.0"
     bordercolor="#666666"
     pagecolor="#ffffff"
     id="base"
     showgrid="false"
     inkscape:zoom="16.334167"
     inkscape:cx="17.782397"
     inkscape:cy="10.837606"
     inkscape:window-x="-9"
     inkscape:window-y="-9"
     inkscape:current-layer="svg2"
     inkscape:window-maximized="1" />
  <defs
     id="defs4">
    <inkscape:perspective
       sodipodi:type="inkscape:persp3d"
       inkscape:vp_x="0 : 10 : 1"
       inkscape:vp_y="0 : 1000 : 0"
       inkscape:vp_z="20 : 10 : 1"
       inkscape:persp3d-origin="10 : 6.6666667 : 1"
       id="perspective18" />
    <filter
       id="filter">
      <feGaussianBlur
         stdDeviation="0.4858"
         id="feGaussianBlur7" />
    </filter>
  </defs>
  <path
     style="fill:#aa0000"
     id="path13"
     d="m 10.568962,0.00472717 c -0.09528,-4.057e-4 -0.151891,0.064869 -0.34497,0.5839154 -0.02279,0.061263 -0.06939,0.3227592 -0.06939,0.3227592 10e-7,-2e-7 -0.152538,0.00664 -0.1919163,0.00647 C 9.8865577,0.91754787 9.783306,0.98498997 9.7313,1.067484 9.5699456,1.3234224 9.3137087,2.7347233 9.3109394,3.3853689 9.3092214,3.7891392 9.2743566,4.0309915 9.210826,4.0796302 9.157214,4.1206757 8.8764506,4.2467265 8.5878194,4.358741 8.078541,4.5563873 7.9510288,4.5677045 4.2722952,4.7484459 1.3590798,4.8915771 0.4419382,4.9609007 0.3045025,5.0473279 -0.0765673,5.2869683 -0.0987281,5.8442843 0.2310346,6.9003257 l 0.1701399,0.5448154 c 0,0 8.9588786,1.5222301 8.9588786,1.5222301 l 0.7295179,5.5144548 -0.1994103,0.05502 c -0.1096087,0.02985 -0.8454374,0.107594 -1.6354379,0.172785 -0.7900005,0.06519 -1.4811835,0.154855 -1.5359652,0.199928 -0.2202257,0.181193 -0.05388,1.617469 0.1874316,1.618496 0.380869,0.0016 1.7882614,0.19698 1.8619271,0.258108 0.052595,0.04365 1.2620927,0.211834 1.7285227,0.213818 0.46643,0.002 1.677316,-0.155904 1.730279,-0.199099 0.07418,-0.0605 1.483188,-0.243873 1.864058,-0.242253 0.241312,0.001 0.419874,-1.433782 0.201197,-1.616843 -0.0544,-0.04554 -0.744788,-0.141077 -1.534206,-0.212992 -0.789417,-0.07191 -1.524558,-0.15592 -1.633909,-0.186698 l -0.198933,-0.05671 0.776422,-5.5080468 c 0,0 8.971511,-1.4459291 8.971511,-1.4459281 L 20.847827,6.9880573 C 21.186566,5.9348601 21.16915,5.3773765 20.790133,5.1345021 20.653437,5.0469078 19.736921,4.9697803 16.825028,4.8018618 13.147965,4.5898174 13.020555,4.5774159 12.512978,4.3754443 12.225311,4.2609771 11.945632,4.132541 11.892369,4.0910417 c -0.06311,-0.049178 -0.09592,-0.2913183 -0.0942,-0.6950887 0.0028,-0.6506456 -0.241448,-2.064076 -0.400618,-2.3213785 -0.0513,-0.082934 -0.153975,-0.15125163 -0.230108,-0.15157613 -0.03938,-1.674e-4 -0.189426,-0.00809 -0.189426,-0.00809 0,0 -0.04437,-0.2618829 -0.06664,-0.3233372 -0.188653,-0.5206745 -0.247136,-0.5864386 -0.342415,-0.586844 z"
     inkscape:connector-curvature="0" />
</svg>
