<?xml version="1.0" encoding="UTF-8" standalone="no"?>
<svg
   xmlns:dc="http://purl.org/dc/elements/1.1/"
   xmlns:cc="http://creativecommons.org/ns#"
   xmlns:rdf="http://www.w3.org/1999/02/22-rdf-syntax-ns#"
   xmlns:svg="http://www.w3.org/2000/svg"
   xmlns="http://www.w3.org/2000/svg"
   xmlns:sodipodi="http://sodipodi.sourceforge.net/DTD/sodipodi-0.dtd"
   xmlns:inkscape="http://www.inkscape.org/namespaces/inkscape"
   version="1.0"
   width="10"
   height="10"
   id="svg2"
   sodipodi:version="0.32"
   inkscape:version="0.92.4 (5da689c313, 2019-01-14)"
   sodipodi:docname="aircraft-icon__active.svg"
   inkscape:output_extension="org.inkscape.output.svg.inkscape">
  <metadata
     id="metadata16">
    <rdf:RDF>
      <cc:Work
         rdf:about="">
        <dc:format>image/svg+xml</dc:format>
        <dc:type
           rdf:resource="http://purl.org/dc/dcmitype/StillImage" />
        <dc:title></dc:title>
      </cc:Work>
    </rdf:RDF>
  </metadata>
  <sodipodi:namedview
     inkscape:window-height="1001"
     inkscape:window-width="1920"
     inkscape:pageshadow="2"
     inkscape:pageopacity="0.0"
     guidetolerance="10.0"
     gridtolerance="10.0"
     objecttolerance="10.0"
     borderopacity="1.0"
     bordercolor="#666666"
     pagecolor="#ffffff"
     id="base"
     showgrid="false"
     inkscape:zoom="16.334167"
     inkscape:cx="-8.54279"
     inkscape:cy="10.837606"
     inkscape:window-x="-9"
     inkscape:window-y="-9"
     inkscape:current-layer="svg2"
     inkscape:window-maximized="1" />
  <defs
     id="defs4">
    <inkscape:perspective
       sodipodi:type="inkscape:persp3d"
       inkscape:vp_x="0 : 10 : 1"
       inkscape:vp_y="0 : 1000 : 0"
       inkscape:vp_z="20 : 10 : 1"
       inkscape:persp3d-origin="10 : 6.6666667 : 1"
       id="perspective18" />
    <filter
       id="filter">
      <feGaussianBlur
         stdDeviation="0.4858"
         id="feGaussianBlur7" />
    </filter>
  </defs>
  <path
     style="fill:#dfc16d;stroke-width:0.1;stroke:#000000;stroke-opacity:1;stroke-miterlimit:4;stroke-dasharray:none;fill-opacity:1"
     id="path13"
     d="m 9.0365009,5.012818 c 1.92e-4,-0.04517 -0.03075,-0.072007 -0.2768171,-0.1635402 -0.029042,-0.010804 -0.1530106,-0.032896 -0.1530106,-0.032896 0,5e-7 -0.00313,-0.072314 -0.00308,-0.090982 1.659e-4,-0.03609 -0.031807,-0.085038 -0.070914,-0.1096927 C 8.4113462,4.5392137 7.7422899,4.4177393 7.4338378,4.4164265 7.2424223,4.4156111 7.1277674,4.3990835 7.1047091,4.3689657 7.0852485,4.3435498 7.0254938,4.2104481 6.9723908,4.0736166 6.8786926,3.8321827 6.8733276,3.7717329 6.7876431,2.0277535 6.7197889,0.64668391 6.6869249,0.21189402 6.6459519,0.14673966 6.5323457,-0.03391394 6.2681386,-0.04441982 5.7675006,0.11190969 l -0.2582815,0.0806584 c 0,0 -0.7216444,4.24714074 -0.7216444,4.24714074 L 2.173334,4.7855518 2.1472506,4.6910173 C 2.1330996,4.639055 2.0962435,4.2902203 2.0653383,3.9157043 2.0344337,3.5411883 1.9919261,3.2135188 1.9705584,3.1875484 1.8846601,3.0831459 1.2037639,3.1620055 1.2032771,3.2764042 1.2025185,3.456963 1.1098946,4.1241663 1.0809157,4.1590891 c -0.020693,0.024934 -0.10042434,0.598321 -0.10136494,0.8194417 -9.481e-4,0.2211217 0.07391,0.7951672 0.094387,0.8202754 0.028681,0.035167 0.115613,0.7031358 0.114845,0.883695 -4.74e-4,0.1143989 0.6797139,0.1990499 0.7664977,0.095382 0.021589,-0.02579 0.06688,-0.3530821 0.1009732,-0.7273219 0.03409,-0.3742395 0.073917,-0.7227482 0.088508,-0.7745883 l 0.026884,-0.094308 2.6112028,0.3680788 c 0,0 0.6854724,4.2531294 0.685472,4.2531294 l 0.2575884,0.082853 c 0.4992902,0.1605858 0.763577,0.1523288 0.8787164,-0.027349 0.041529,-0.064804 0.07809,-0.4992968 0.1576953,-1.8797396 0.1005238,-1.7431873 0.1064028,-1.8035887 0.2021518,-2.044216 0.054265,-0.1363744 0.1151531,-0.2689621 0.1348271,-0.2942125 0.023315,-0.029919 0.1381053,-0.045473 0.3295207,-0.044657 0.3084521,0.00133 0.9785177,-0.1144634 1.1004975,-0.1899212 0.039315,-0.02432 0.071704,-0.072995 0.071858,-0.1090874 7.92e-5,-0.018669 0.00384,-0.089801 0.00384,-0.089801 0,0 0.124151,-0.021035 0.1532845,-0.031592 0.2468367,-0.089436 0.2780137,-0.1171613 0.2782057,-0.1623302 z"
     inkscape:connector-curvature="0" />
</svg>
