<?xml version="1.0" encoding="UTF-8" standalone="no"?>
<svg
   xmlns:dc="http://purl.org/dc/elements/1.1/"
   xmlns:cc="http://creativecommons.org/ns#"
   xmlns:rdf="http://www.w3.org/1999/02/22-rdf-syntax-ns#"
   xmlns:svg="http://www.w3.org/2000/svg"
   xmlns="http://www.w3.org/2000/svg"
   xmlns:sodipodi="http://sodipodi.sourceforge.net/DTD/sodipodi-0.dtd"
   xmlns:inkscape="http://www.inkscape.org/namespaces/inkscape"
   version="1.0"
   width="20"
   height="20"
   id="svg2"
   sodipodi:version="0.32"
   inkscape:version="0.92.4 (5da689c313, 2019-01-14)"
   sodipodi:docname="aircraft-icon__red.svg"
   inkscape:output_extension="org.inkscape.output.svg.inkscape">
  <metadata
     id="metadata16">
    <rdf:RDF>
      <cc:Work
         rdf:about="">
        <dc:format>image/svg+xml</dc:format>
        <dc:type
           rdf:resource="http://purl.org/dc/dcmitype/StillImage" />
        <dc:title></dc:title>
      </cc:Work>
    </rdf:RDF>
  </metadata>
  <sodipodi:namedview
     inkscape:window-height="1001"
     inkscape:window-width="1920"
     inkscape:pageshadow="2"
     inkscape:pageopacity="0.0"
     guidetolerance="10.0"
     gridtolerance="10.0"
     objecttolerance="10.0"
     borderopacity="1.0"
     bordercolor="#666666"
     pagecolor="#ffffff"
     id="base"
     showgrid="false"
     inkscape:zoom="8.1670835"
     inkscape:cx="-12.341441"
     inkscape:cy="16.337831"
     inkscape:window-x="-9"
     inkscape:window-y="-9"
     inkscape:current-layer="svg2"
     inkscape:window-maximized="1" />
  <defs
     id="defs4">
    <inkscape:perspective
       sodipodi:type="inkscape:persp3d"
       inkscape:vp_x="0 : 10 : 1"
       inkscape:vp_y="0 : 1000 : 0"
       inkscape:vp_z="20 : 10 : 1"
       inkscape:persp3d-origin="10 : 6.6666667 : 1"
       id="perspective18" />
    <filter
       id="filter">
      <feGaussianBlur
         stdDeviation="0.4858"
         id="feGaussianBlur7" />
    </filter>
  </defs>
  <path
     style="fill:#c33529;fill-opacity:1;stroke:#000000;stroke-width:0.5;stroke-miterlimit:4;stroke-dasharray:none;stroke-opacity:1"
     id="path13"
     d="m 16.986674,10.073041 c 3.8e-4,-0.089466 -0.06091,-0.1426273 -0.548281,-0.3239172 -0.05752,-0.021391 -0.303062,-0.065164 -0.303062,-0.065164 0,0 -0.0062,-0.1432215 -0.0061,-0.1802005 3.28e-4,-0.071482 -0.063,-0.1684353 -0.140457,-0.2172645 C 15.748455,9.1349924 14.423281,8.8943917 13.812343,8.891793 13.433214,8.8901768 13.206121,8.8574424 13.16045,8.7977889 13.121906,8.7474485 13.003552,8.4838186 12.898373,8.2128029 12.712789,7.7346041 12.702162,7.6148732 12.53245,4.1606412 12.398054,1.4252126 12.332962,0.56404129 12.251808,0.43499335 12.026793,0.07717933 11.503488,0.05637071 10.511895,0.36600695 l -0.511568,0.15976006 c 0,0 -1.4293327,8.41214369 -1.4293327,8.41214369 L 3.3930714,9.6229082 3.3414098,9.4356764 C 3.3133815,9.3327613 3.2403823,8.6418337 3.17917,7.9000447 3.1179577,7.1582557 3.0337658,6.5092547 2.991443,6.457815 2.8213082,6.2510301 1.4726836,6.4072289 1.4717194,6.6338165 1.4702168,6.9914425 1.2867613,8.3129451 1.229363,8.3821157 1.1883772,8.4314935 1.0304565,9.5671863 1.0285935,10.005152 c -0.00188,0.437966 0.1463906,1.574956 0.1869486,1.624686 0.056807,0.06966 0.2289901,1.392674 0.2274689,1.7503 -9.388e-4,0.226585 1.3462824,0.39425 1.5181716,0.188915 0.04276,-0.05108 0.1324666,-0.699335 0.1999936,-1.440578 0.067521,-0.74124 0.1464045,-1.431518 0.1753043,-1.534195 l 0.053248,-0.186797 5.1719058,0.72904 c 0,0 1.357688,8.424004 1.3576872,8.424004 l 0.5101955,0.164098 c 0.988924,0.318066 1.512386,0.301712 1.740438,-0.05417 0.08225,-0.128347 0.15467,-0.988938 0.312341,-3.723125 0.199104,-3.452663 0.210748,-3.572297 0.400394,-4.048898 0.107481,-0.270112 0.228079,-0.532722 0.267047,-0.582736 0.04618,-0.05926 0.27354,-0.09006 0.652669,-0.08846 0.610938,0.0026 1.938111,-0.226712 2.179711,-0.376169 0.07787,-0.04817 0.142022,-0.144568 0.142327,-0.216064 1.56e-4,-0.03698 0.0076,-0.177863 0.0076,-0.177863 0,0 0.245901,-0.04165 0.303605,-0.06257 0.4889,-0.177151 0.550651,-0.232059 0.551031,-0.321523 z"
     inkscape:connector-curvature="0" />
</svg>
