<?xml version="1.0" encoding="UTF-8" standalone="no"?>
<svg
   xmlns:dc="http://purl.org/dc/elements/1.1/"
   xmlns:cc="http://creativecommons.org/ns#"
   xmlns:rdf="http://www.w3.org/1999/02/22-rdf-syntax-ns#"
   xmlns:svg="http://www.w3.org/2000/svg"
   xmlns="http://www.w3.org/2000/svg"
   xmlns:sodipodi="http://sodipodi.sourceforge.net/DTD/sodipodi-0.dtd"
   xmlns:inkscape="http://www.inkscape.org/namespaces/inkscape"
   version="1.0"
   width="30"
   height="30"
   id="svg2"
   sodipodi:version="0.32"
   inkscape:version="0.92.4 (5da689c313, 2019-01-14)"
   sodipodi:docname="aircraft-icon__gray.svg"
   inkscape:output_extension="org.inkscape.output.svg.inkscape">
  <metadata
     id="metadata16">
    <rdf:RDF>
      <cc:Work
         rdf:about="">
        <dc:format>image/svg+xml</dc:format>
        <dc:type
           rdf:resource="http://purl.org/dc/dcmitype/StillImage" />
        <dc:title></dc:title>
      </cc:Work>
    </rdf:RDF>
  </metadata>
  <sodipodi:namedview
     inkscape:window-height="1001"
     inkscape:window-width="1920"
     inkscape:pageshadow="2"
     inkscape:pageopacity="0.0"
     guidetolerance="10.0"
     gridtolerance="10.0"
     objecttolerance="10.0"
     borderopacity="1.0"
     bordercolor="#666666"
     pagecolor="#ffffff"
     id="base"
     showgrid="false"
     inkscape:zoom="8.1670835"
     inkscape:cx="-25.475434"
     inkscape:cy="2.1300703"
     inkscape:window-x="-9"
     inkscape:window-y="-9"
     inkscape:current-layer="svg2"
     inkscape:window-maximized="1" />
  <defs
     id="defs4">
    <inkscape:perspective
       sodipodi:type="inkscape:persp3d"
       inkscape:vp_x="0 : 10 : 1"
       inkscape:vp_y="0 : 1000 : 0"
       inkscape:vp_z="20 : 10 : 1"
       inkscape:persp3d-origin="10 : 6.6666667 : 1"
       id="perspective18" />
    <filter
       id="filter">
      <feGaussianBlur
         stdDeviation="0.4858"
         id="feGaussianBlur7" />
    </filter>
  </defs>
  <path
     style="fill:#4d4d4d;stroke-width:0.5;stroke:#000000;stroke-opacity:1;stroke-miterlimit:4;stroke-dasharray:none"
     id="path13"
     d="m 25.156197,15.034889 c 5.76e-4,-0.135542 -0.09227,-0.216081 -0.83065,-0.490737 -0.08715,-0.03241 -0.459142,-0.09872 -0.459142,-0.09872 0,0 -0.0094,-0.216981 -0.0092,-0.273005 4.98e-4,-0.108296 -0.09544,-0.255181 -0.212793,-0.329157 -0.364086,-0.229528 -2.371734,-0.59404 -3.297312,-0.59798 -0.574384,-0.0024 -0.918431,-0.05204 -0.987622,-0.142414 -0.0584,-0.07627 -0.237703,-0.475668 -0.39705,-0.886259 C 18.681224,11.492138 18.665125,11.310744 18.40801,6.0775533 18.204399,1.9333557 18.105784,0.62867381 17.982835,0.43316508 17.641935,-0.1089265 16.849124,-0.14045203 15.346851,0.3286501 l -0.77503,0.24203785 c 0,0 -2.16545,12.74446905 -2.16545,12.74446905 L 4.5617734,14.352934 4.4835057,14.069247 C 4.4410425,13.913329 4.3304481,12.866568 4.2377109,11.742751 4.1449738,10.618935 4.0174223,9.6356928 3.953303,9.5577612 3.6955473,9.2444803 1.6523695,9.4811228 1.6509087,9.8244049 c -0.00228,0.5418061 -0.280213,2.5438941 -0.367172,2.6486881 -0.062094,0.07481 -0.30134501,1.795392 -0.30416748,2.458914 -0.002845,0.663521 0.22178298,2.386071 0.28322868,2.461413 0.086064,0.105535 0.3469219,2.109912 0.3446174,2.651719 -0.00142,0.343279 2.0396292,0.597293 2.3000429,0.286208 0.064782,-0.07739 0.2006879,-1.059499 0.302992,-2.182487 0.1022945,-1.122986 0.221804,-2.168763 0.2655875,-2.32432 l 0.080671,-0.282998 7.8354813,1.104501 c 0,0 2.056909,12.762438 2.056908,12.762438 l 0.77295,0.24861 c 1.498229,0.481873 2.291279,0.457096 2.636779,-0.08207 0.124617,-0.194447 0.234326,-1.498249 0.473199,-5.640565 0.301644,-5.230815 0.319285,-5.412061 0.606601,-6.134115 0.162834,-0.409222 0.345542,-0.807079 0.404578,-0.88285 0.06996,-0.08978 0.414415,-0.136442 0.988798,-0.134012 0.925578,0.0039 2.936255,-0.343471 3.302282,-0.569899 0.117973,-0.07298 0.215164,-0.219022 0.215626,-0.327339 2.37e-4,-0.05602 0.01152,-0.269465 0.01152,-0.269465 0,0 0.372542,-0.06311 0.459964,-0.09479 0.740687,-0.268354 0.83424,-0.351567 0.834817,-0.487107 z"
     inkscape:connector-curvature="0" />
</svg>
